#!OML:ASF F:\VICON\USERDATA\INSTALL\rory3\rory3.ASF
:FULLY-SPECIFIED
:DEGREES
896
root 4.61729 17.3823 2.48221 5.39591 -12.6438 -5.30934
lowerback 11.3758 0.32092 4.14359
upperback 4.61664 0.863929 1.29117
thorax -1.51041 0.448112 -1.09828
lowerneck -11.9561 -0.38895 -2.74361
upperneck 35.8872 0.07586 -0.132411
head 14.2944 -0.408143 0.431377
rclavicle 3.3048e-015 -2.24627e-014
rhumerus -32.3355 -3.00308 -17.4646
rradius 35.3696
rwrist 9.61791
rhand -21.1159 -44.8065
rfingers 7.12502
rthumb 5.26242 -74.7212
lclavicle 3.3048e-015 -2.24627e-014
lhumerus -29.8133 2.24575 11.7842
lradius 29.7031
lwrist 10.9238
lhand -24.3768 -32.5065
lfingers 7.12502
lthumb 2.11343 -2.53719
rfemur -98.9669 2.10733 27.7607
rtibia 98.6759
rfoot 46.9478 3.95166
rtoes -7.84527
lfemur -18.0299 1.46723 -23.9987
ltibia 30.1469
lfoot -14.2858 8.5315
ltoes 11.9374
897
root 4.62024 17.3809 2.48391 5.35098 -12.5211 -5.25184
lowerback 11.4246 0.262106 4.12393
upperback 4.58362 0.788197 1.2796
thorax -1.5753 0.408953 -1.09073
lowerneck -11.916 -0.408967 -2.77292
upperneck 35.9171 0.0673341 -0.174534
head 14.2998 -0.422041 0.41802
rclavicle -3.35449e-015 -3.32964e-015
rhumerus -32.2778 -3.0888 -17.3995
rradius 35.3565
rwrist 9.701
rhand -21.4128 -44.6867
rfingers 7.12502
rthumb 4.97574 -74.6082
lclavicle -3.35449e-015 -3.32964e-015
lhumerus -29.9546 2.05251 11.8353
lradius 29.7769
lwrist 10.87
lhand -24.42 -31.6951
lfingers 7.12502
lthumb 2.07171 -1.72545
rfemur -98.9653 1.89825 27.751
rtibia 98.6871
rfoot 46.9497 4.00756
rtoes -8.14866
lfemur -18.0141 1.35293 -24.0606
ltibia 30.1463
lfoot -14.2724 8.47235
ltoes 12.0728
898
root 4.62155 17.3791 2.4845 5.33495 -12.4391 -5.18919
lowerback 11.4113 0.194672 4.05022
upperback 4.5976 0.689637 1.24943
thorax -1.55909 0.360034 -1.06829
lowerneck -12.0177 -0.406802 -2.75181
upperneck 35.8984 0.0789753 -0.20634
head 14.3142 -0.418915 0.402864
rclavicle 3.926e-014 2.38542e-015
rhumerus -32.1207 -3.23194 -17.4371
rradius 35.3414
rwrist 9.8243
rhand -21.1776 -44.7305
rfingers 7.12502
rthumb 5.20284 -74.6467
lclavicle 3.926e-014 2.38542e-015
lhumerus -30.0767 2.14212 11.7282
lradius 29.829
lwrist 11.0673
lhand -24.2548 -30.4822
lfingers 7.12502
lthumb 2.23129 -0.514139
rfemur -98.9803 1.7537 27.7262
rtibia 98.6529
rfoot 47.0894 3.90221
rtoes -8.29369
lfemur -18.0378 1.24472 -24.1274
ltibia 30.1932
lfoot -14.3098 8.43741
ltoes 12.0199
899
root 4.61826 17.3783 2.48708 5.34553 -12.4513 -5.22352
lowerback 11.3803 0.162739 3.9896
upperback 4.59024 0.639965 1.25592
thorax -1.55331 0.334758 -1.02119
lowerneck -12.0961 -0.388939 -2.69874
upperneck 35.9301 0.125294 -0.297188
head 14.3463 -0.405315 0.363205
rclavicle -3.29237e-014 -1.30204e-014
rhumerus -31.9954 -3.17067 -17.5117
rradius 35.3244
rwrist 9.71754
rhand -20.9208 -44.8746
rfingers 7.12502
rthumb 5.45086 -74.7845
lclavicle -3.29237e-014 -1.30204e-014
lhumerus -30.2214 2.21239 11.6096
lradius 29.9494
lwrist 11.1103
lhand -24.1351 -31.1914
lfingers 7.12502
lthumb 2.3469 -1.22457
rfemur -98.9444 1.77438 27.7825
rtibia 98.5966
rfoot 47.1639 3.77633
rtoes -8.30588
lfemur -18.0594 1.24903 -24.0814
ltibia 30.2601
lfoot -14.3776 8.48218
ltoes 11.8372
900
root 4.61649 17.3767 2.48656 5.39769 -12.4015 -5.30247
lowerback 11.4348 0.137637 4.02132
upperback 4.51902 0.616718 1.28802
thorax -1.65821 0.320723 -1.00361
lowerneck -12.0872 -0.395084 -2.71714
upperneck 35.9761 0.135453 -0.337877
head 14.366 -0.409791 0.351284
rclavicle 6.95746e-016 -1.81888e-014
rhumerus -31.9708 -3.10286 -17.4994
rradius 35.2922
rwrist 9.47014
rhand -20.9054 -45.0194
rfingers 7.12502
rthumb 5.46568 -74.9289
lclavicle 6.95746e-016 -1.81888e-014
lhumerus -30.2343 2.18836 11.573
lradius 29.9956
lwrist 11.0839
lhand -24.4009 -31.7011
lfingers 7.12502
lthumb 2.09016 -1.73158
rfemur -98.9502 1.74967 27.8793
rtibia 98.5495
rfoot 47.1343 3.96298
rtoes -8.43972
lfemur -18.12 1.22412 -23.9957
ltibia 30.3036
lfoot -14.3486 8.55219
ltoes 11.736
901
root 4.61684 17.3765 2.48163 5.47963 -12.3147 -5.4484
lowerback 11.5066 0.114188 4.14277
upperback 4.43975 0.607385 1.34882
thorax -1.77932 0.31367 -1.00841
lowerneck -11.9274 -0.404896 -2.80686
upperneck 35.8568 0.113521 -0.267024
head 14.2746 -0.419857 0.393005
rclavicle 1.43622e-014 2.48481e-014
rhumerus -31.9892 -3.06886 -17.4301
rradius 35.3072
rwrist 9.23879
rhand -20.7781 -45.2164
rfingers 7.12502
rthumb 5.58862 -75.1227
lclavicle 1.43622e-014 2.48481e-014
lhumerus -30.1648 2.17063 11.5715
lradius 29.9724
lwrist 11.1268
lhand -24.8352 -30.8383
lfingers 7.12502
lthumb 1.67074 -0.865087
rfemur -98.9516 1.72249 28.0306
rtibia 98.4782
rfoot 47.0976 4.0196
rtoes -8.34388
lfemur -18.2169 1.11628 -23.8333
ltibia 30.3128
lfoot -14.237 8.61318
ltoes 11.7067
902
root 4.61823 17.3782 2.48341 5.45403 -12.2734 -5.40762
lowerback 11.503 0.100607 4.09934
upperback 4.43475 0.58478 1.3429
thorax -1.78422 0.302071 -0.987333
lowerneck -11.8047 -0.39689 -2.76969
upperneck 35.7074 0.132986 -0.331875
head 14.1776 -0.41281 0.363227
rclavicle 3.00413e-014 -1.14301e-014
rhumerus -31.9874 -3.03683 -17.3996
rradius 35.3068
rwrist 9.11383
rhand -20.6197 -45.2972
rfingers 7.12502
rthumb 5.74152 -75.1994
lclavicle 3.00413e-014 -1.14301e-014
lhumerus -30.1237 2.24865 11.52
lradius 29.97
lwrist 11.0919
lhand -24.9268 -30.2187
lfingers 7.12502
lthumb 1.5823 -0.244853
rfemur -98.9207 1.6547 28.0045
rtibia 98.4649
rfoot 47.0955 4.08615
rtoes -8.37408
lfemur -18.1858 0.986022 -23.8776
ltibia 30.2888
lfoot -14.213 8.68145
ltoes 11.6624
903
root 4.6211 17.3795 2.48837 5.36777 -12.2706 -5.28902
lowerback 11.5054 0.0962568 4.01812
upperback 4.47401 0.567604 1.29109
thorax -1.74596 0.294382 -0.993195
lowerneck -11.8721 -0.388926 -2.61274
upperneck 35.7194 0.167125 -0.50631
head 14.1983 -0.400538 0.269647
rclavicle -1.46604e-014 -6.95746e-016
rhumerus -32.0378 -3.10157 -17.3978
rradius 35.3466
rwrist 9.18674
rhand -20.7019 -45.4884
rfingers 7.12502
rthumb 5.66217 -75.3927
lclavicle -1.46604e-014 -6.95746e-016
lhumerus -30.0614 2.29994 11.4742
lradius 29.9478
lwrist 11.1011
lhand -24.87 -30.1136
lfingers 7.12502
lthumb 1.63708 -0.140171
rfemur -98.8636 1.5643 27.9146
rtibia 98.4817
rfoot 47.0452 4.38653
rtoes -8.68402
lfemur -18.0668 0.927466 -24.0241
ltibia 30.2192
lfoot -14.2163 8.73277
ltoes 11.5147
904
root 4.62396 17.382 2.49185 5.36175 -12.3453 -5.376
lowerback 11.5091 0.106785 4.1164
upperback 4.48892 0.591505 1.29539
thorax -1.72986 0.307342 -1.04685
lowerneck -11.9166 -0.373086 -2.49056
upperneck 35.742 0.208685 -0.645907
head 14.2186 -0.385368 0.197424
rclavicle -2.85753e-015 -1.0138e-014
rhumerus -32.1088 -3.08169 -17.4166
rradius 35.4662
rwrist 9.23519
rhand -21.1379 -45.6178
rfingers 7.12502
rthumb 5.2412 -75.533
lclavicle -2.85753e-015 -1.0138e-014
lhumerus -30.05 2.24728 11.4614
lradius 29.9788
lwrist 11.2337
lhand -25.0892 -29.4239
lfingers 7.12502
lthumb 1.42545 0.551067
rfemur -98.7659 1.61016 28.0301
rtibia 98.4556
rfoot 47.0371 4.58555
rtoes -8.54655
lfemur -17.964 0.950381 -23.9577
ltibia 30.1149
lfoot -14.1755 8.84025
ltoes 11.4257
905
root 4.62731 17.3849 2.49724 5.3441 -12.403 -5.39257
lowerback 11.4936 0.111169 4.14602
upperback 4.48841 0.599643 1.29945
thorax -1.72118 0.311707 -1.06017
lowerneck -11.814 -0.360667 -2.4729
upperneck 35.6498 0.247704 -0.730164
head 14.153 -0.376052 0.166425
rclavicle 2.79044e-014 -1.12313e-014
rhumerus -32.1204 -2.96029 -17.4102
rradius 35.5166
rwrist 9.1206
rhand -21.7571 -45.1507
rfingers 7.12502
rthumb 4.64335 -75.0798
lclavicle 2.79044e-014 -1.12313e-014
lhumerus -30.0877 2.17391 11.4684
lradius 30.0353
lwrist 11.2397
lhand -25.1832 -29.3072
lfingers 7.12502
lthumb 1.33464 0.66835
rfemur -98.6979 1.59097 28.0822
rtibia 98.4693
rfoot 47.1302 4.56233
rtoes -7.98305
lfemur -17.8569 0.859811 -23.9647
ltibia 30.0388
lfoot -14.1216 9.01532
ltoes 11.4828
906
root 4.63053 17.3837 2.50094 5.3118 -12.3918 -5.29821
lowerback 11.4795 0.118735 4.09188
upperback 4.44491 0.604576 1.28256
thorax -1.75928 0.312841 -1.04807
lowerneck -11.642 -0.400496 -2.55947
upperneck 35.5863 0.189358 -0.68558
head 14.0858 -0.4055 0.191492
rclavicle -1.81143e-014 1.78906e-014
rhumerus -32.1948 -2.83372 -17.3402
rradius 35.5225
rwrist 8.99267
rhand -22.2482 -44.4706
rfingers 7.12502
rthumb 4.16913 -74.4096
lclavicle -1.81143e-014 1.78906e-014
lhumerus -30.0923 2.00401 11.5227
lradius 30.0044
lwrist 10.9708
lhand -24.7713 -30.6263
lfingers 7.12502
lthumb 1.73242 -0.653635
rfemur -98.6944 1.48626 28.0165
rtibia 98.5145
rfoot 47.1459 4.45856
rtoes -7.75744
lfemur -17.8117 0.706451 -24.083
ltibia 30.016
lfoot -14.0538 9.13844
ltoes 11.4217
907
root 4.63341 17.385 2.50022 5.3387 -12.3556 -5.29868
lowerback 11.4601 0.117445 4.13633
upperback 4.39932 0.608392 1.27594
thorax -1.79536 0.314101 -1.08046
lowerneck -11.5849 -0.435262 -2.61348
upperneck 35.5672 0.122924 -0.608531
head 14.0647 -0.430639 0.222416
rclavicle 1.26228e-014 -2.40529e-014
rhumerus -32.2678 -2.75837 -17.2967
rradius 35.5291
rwrist 8.97616
rhand -22.2309 -44.3043
rfingers 7.12502
rthumb 4.18578 -74.2429
lclavicle 1.26228e-014 -2.40529e-014
lhumerus -30.084 1.86513 11.5515
lradius 29.8751
lwrist 10.7907
lhand -24.4714 -30.8266
lfingers 7.12502
lthumb 2.02213 -0.856417
rfemur -98.6733 1.42964 28.027
rtibia 98.5027
rfoot 47.0102 4.57026
rtoes -7.9483
lfemur -17.9316 0.517459 -24.0513
ltibia 30.0246
lfoot -13.9792 9.11969
ltoes 11.5111
908
root 4.63586 17.3878 2.50038 5.35864 -12.3875 -5.38088
lowerback 11.476 0.126377 4.24319
upperback 4.39451 0.632833 1.28654
thorax -1.80632 0.32664 -1.13264
lowerneck -11.5593 -0.447162 -2.70181
upperneck 35.5065 0.0924408 -0.507828
head 14.0315 -0.441216 0.274436
rclavicle -4.91247e-014 1.85864e-014
rhumerus -32.2711 -2.77534 -17.2677
rradius 35.5374
rwrist 9.11093
rhand -21.8152 -44.5856
rfingers 7.12502
rthumb 4.58721 -74.516
lclavicle -4.91247e-014 1.85864e-014
lhumerus -30.0823 1.78356 11.5582
lradius 29.6461
lwrist 10.761
lhand -24.5707 -31.3326
lfingers 7.12502
lthumb 1.92621 -1.36154
rfemur -98.601 1.50554 28.0866
rtibia 98.4544
rfoot 46.879 4.61764
rtoes -7.86275
lfemur -18.0594 0.355485 -23.9178
ltibia 30.061
lfoot -13.9876 9.19038
ltoes 11.2882
